Coordinates
version=1
nRows=14
nColumns=40
inDegrees=yes

Units are S.I. units (second, meters, Newtons, ...)
Angles are in degrees.

endheader
time	pelvis_tilt	pelvis_list	pelvis_rotation	pelvis_tx	pelvis_ty	pelvis_tz	hip_flexion_r	hip_adduction_r	hip_rotation_r	knee_angle_r	knee_angle_r_beta	ankle_angle_r	subtalar_angle_r	mtp_angle_r	hip_flexion_l	hip_adduction_l	hip_rotation_l	knee_angle_l	knee_angle_l_beta	ankle_angle_l	subtalar_angle_l	mtp_angle_l	lumbar_extension	lumbar_bending	lumbar_rotation	arm_flex_r	arm_add_r	arm_rot_r	elbow_flex_r	pro_sup_r	wrist_flex_r	wrist_dev_r	arm_flex_l	arm_add_l	arm_rot_l	elbow_flex_l	pro_sup_l	wrist_flex_l	wrist_dev_l
     34.92000000	     -4.47298043	     -4.13937492	     -1.14146795	      0.90171287	      0.91748592	      0.54761628	     18.03223797	      4.81116773	    -10.58072272	     27.65998262	     27.65998262	     16.39776150	     -2.35016457	      1.09853427	     23.01864870	    -14.81627928	     -3.89309415	     60.99691028	     60.99691028	     17.11095866	    -19.35018176	     19.91730622	    -10.81174785	      8.10504253	      1.13728900	      0.94222853	    -15.26240678	    -18.35142355	     23.54823526	     46.76948664	      0.00000000	      0.00000000	     21.77783151	    -14.61984769	     -1.62725704	     52.16164786	     46.17020917	      0.00000000	      0.00000000
     34.94057143	     -4.06553894	     -4.26009701	     -0.56784724	      0.89995326	      0.91622433	      0.54924869	     17.59208820	      4.97172063	    -10.82661859	     28.27808338	     28.27808338	     17.11074144	     -2.83461408	      0.91218292	     24.41150961	    -15.44931260	     -4.03186729	     60.05825755	     60.05825755	     17.54700690	    -19.41248164	     20.10007522	    -11.06776685	      8.24878064	      0.98848823	      3.83534861	    -15.11903740	    -18.52684715	     24.39763582	     46.77771789	      0.00000000	      0.00000000	     18.70330149	    -13.86656487	     -0.80095896	     50.10115401	     46.06039492	      0.00000000	      0.00000000
     34.96114286	     -3.61500796	     -4.32527741	     -0.00073547	      0.89814127	      0.91505560	      0.55082370	     17.08984170	      5.12848968	    -10.91257557	     28.86381188	     28.86381188	     17.78342323	     -3.55316669	      0.78069209	     25.68975228	    -15.88014819	     -4.13444466	     58.75565978	     58.75565978	     17.95164938	    -19.45960646	     20.42306592	    -11.37411334	      8.32060977	      0.94685384	      6.92943142	    -14.99108625	    -18.64251031	     24.93230036	     46.79575688	      0.00000000	      0.00000000	     15.75317645	    -13.02001640	      0.20203535	     47.58977928	     45.93461766	      0.00000000	      0.00000000
     34.98171429	     -3.19296608	     -4.33330516	      0.60287613	      0.89624579	      0.91398209	      0.55214334	     16.58260202	      5.25105273	    -10.94394207	     29.36779585	     29.36779585	     18.39352250	     -4.41164706	      0.69203334	     26.91586747	    -16.01977397	     -4.06585739	     57.08362027	     57.08362027	     18.21681777	    -19.47940272	     20.71022413	    -11.63944331	      8.34132406	      0.90556078	     10.18966736	    -14.82673681	    -18.72417042	     25.23126758	     46.82202538	      0.00000000	      0.00000000	     12.97755204	    -12.14278590	      1.31056690	     44.63119098	     45.79821222	      0.00000000	      0.00000000
     35.00228571	     -2.82860259	     -4.29848036	      1.17763029	      0.89425048	      0.91309691	      0.55323426	     16.10954539	      5.35405112	    -10.87670636	     29.79521190	     29.79521190	     18.94425869	     -5.30762061	      0.71470593	     28.05213273	    -15.87614732	     -3.84690806	     55.01954872	     55.01954872	     18.24351533	    -19.47194141	     20.88999709	    -11.82390173	      8.32535905	      1.27576110	     13.88613828	    -14.86181979	    -19.14191569	     23.76386975	     46.96465829	      0.00000000	      0.00000000	     11.02420682	    -11.09649679	      3.08568778	     40.14669814	     45.63764479	      0.00000000	      0.00000000
     35.02285714	     -2.47609766	     -4.11557178	      1.77644021	      0.89223971	      0.91251617	      0.55393435	     15.59028798	      5.29999485	    -10.77336080	     30.11270042	     30.11270042	     19.38897290	     -6.24131842	      0.62859851	     28.99329985	    -15.28771434	     -3.40837575	     52.56938887	     52.56938887	     17.98465346	    -19.43990386	     20.81549366	    -12.10969427	      8.13168905	      1.28497202	     16.89186257	    -14.66785231	    -19.22452941	     25.06124742	     46.94132316	      0.00000000	      0.00000000	      8.16477002	    -10.32559084	      3.73547951	     37.99051733	     45.53366547	      0.00000000	      0.00000000
     35.04342857	     -2.25088966	     -3.96319649	      2.42211745	      0.89013409	      0.91210240	      0.55429033	     15.14263714	      5.28979814	    -10.66453065	     30.26118480	     30.26118480	     19.68802993	     -7.29915710	      0.60698846	     29.92947593	    -14.44773821	     -2.60212370	     49.85002238	     49.85002238	     17.32202457	    -19.37737269	     20.30584718	    -12.22381980	      7.97754586	      1.22823544	     20.06995054	    -14.48253172	    -19.24953111	     26.13517131	     46.92264142	      0.00000000	      0.00000000	      5.61312127	     -9.57497076	      4.50050861	     35.24157202	     45.41959724	      0.00000000	      0.00000000
     35.06400000	     -2.07845392	     -3.71184252	      3.03512793	      0.88805424	      0.91212827	      0.55434751	     14.64177990	      5.16313177	    -10.55950030	     30.21273852	     30.21273852	     19.84018502	     -8.23568429	      0.46821947	     30.57997499	    -13.34035711	     -1.70130943	     46.69796622	     46.69796622	     15.86755123	    -19.26516174	     18.30163553	    -12.27301469	      7.68714628	      1.66192682	     23.10350584	    -14.56263992	    -19.26188503	     26.68450433	     46.91648870	      0.00000000	      0.00000000	      3.78584903	     -8.75478117	      5.61532771	     31.63139640	     45.29876252	      0.00000000	      0.00000000
     35.08457143	     -1.96679610	     -3.36229903	      3.62828166	      0.88599380	      0.91254157	      0.55408700	     14.12489412	      4.88816293	    -10.52613207	     30.04163300	     30.04163300	     19.97806000	     -8.91443825	      0.51988220	     31.11198797	    -11.92141637	     -0.44890943	     43.50391360	     43.50391360	     14.91579131	    -19.06510275	     18.23821451	    -12.30499292	      7.26486963	      1.98979605	     25.88572974	    -14.61622793	    -19.18206810	     28.23119944	     46.86428488	      0.00000000	      0.00000000	      1.29874639	     -8.26541960	      5.95837185	     30.17702415	     45.21940392	      0.00000000	      0.00000000
     35.10514286	     -1.94927442	     -3.09451910	      4.22782271	      0.88393244	      0.91311634	      0.55362481	     13.62011454	      4.68968309	    -10.56032361	     29.68925177	     29.68925177	     20.02277922	     -9.50990606	      0.53386870	     31.56512993	    -10.57888001	      0.87256395	     40.24087944	     40.24087944	     13.46095766	    -18.62576851	     16.91900970	    -12.27546431	      6.96268805	      1.80362889	     28.97534653	    -14.35210232	    -18.84791765	     30.29757512	     46.76875842	      0.00000000	      0.00000000	     -1.19354540	     -7.89352395	      6.45043655	     28.31155871	     45.12118585	      0.00000000	      0.00000000
     35.12571429	     -2.13652241	     -2.98566808	      4.76989242	      0.88190250	      0.91353717	      0.55318542	     13.33490804	      4.58326140	    -10.81904449	     29.33405862	     29.33405862	     20.06199564	     -9.73225913	      0.57828188	     32.25585006	     -9.56197972	      1.98166887	     37.35697677	     37.35697677	     12.82968514	    -17.16188047	     16.97505995	    -11.96574847	      6.76741380	      2.95785857	     31.52761631	    -15.30563129	    -18.79834676	     31.51435864	     46.73614713	      0.00000000	      0.00000000	     -3.22331455	     -7.57591542	      6.55897906	     27.55491013	     45.07309080	      0.00000000	      0.00000000
     35.14628571	     -2.14622186	     -2.64970845	      5.35216433	      0.88022005	      0.91495953	      0.55253927	     12.51519326	      4.27112328	    -11.11980377	     28.41596321	     28.41596321	     19.90241301	     -9.76774083	      0.37335303	     32.03685584	     -8.26239638	      3.11303944	     33.56573220	     33.56573220	      9.97156696	    -16.83276204	     12.56311448	    -11.91371532	      6.32564281	      2.05926682	     34.24017885	    -14.42749928	    -17.21981356	     35.37790894	     46.47408742	      0.00000000	      0.00000000	     -5.79007758	     -7.53304789	      7.28627755	     26.01554714	     44.93707333	      0.00000000	      0.00000000
     35.16685714	     -2.14407932	     -2.47096206	      5.77212360	      0.87870728	      0.91636822	      0.55213797	     11.67600027	      4.14969256	    -11.38290655	     27.47763070	     27.47763070	     19.65220151	     -9.66594301	      0.01351239	     31.78040894	     -7.50441945	      3.53361188	     30.14723218	     30.14723218	      7.85820769	    -15.39654535	      8.52674234	    -11.93419657	      5.97434954	      2.90921140	     35.93898726	    -15.52563008	    -14.39026209	     39.35730373	     46.13910663	      0.00000000	      0.00000000	     -7.88208656	     -7.73367365	      8.16159315	     26.25483360	     44.79752962	      0.00000000	      0.00000000
     35.18742857	     -2.27407957	     -2.36664971	      6.20703193	      0.87721522	      0.91772889	      0.55173400	     10.93127697	      4.07680351	    -11.79001204	     26.45629933	     26.45629933	     19.54805179	     -9.27946555	      0.14082938	     31.78393247	     -6.85560840	      3.87038000	     27.41123785	     27.41123785	      7.54649307	    -13.47986921	      8.67500896	    -11.74865644	      5.69901515	      3.12384093	     38.78356976	    -15.63649881	    -14.04979983	     41.33677381	     46.05987269	      0.00000000	      0.00000000	     -9.81081426	     -7.80963323	      8.38432835	     25.66252959	     44.73720882	      0.00000000	      0.00000000
